<mxfile modified="2019-11-30T08:25:19.419Z" host="www.draw.io" agent="Mozilla/5.0 (Windows NT 10.0; Win64; x64) AppleWebKit/537.36 (KHTML, like Gecko) Chrome/78.0.3904.108 Safari/537.36" etag="-qr9UsAXCQmJH1YNg3QC" version="12.3.3" type="github" pages="1">
  <diagram id="4MEhEQG-nWIl660bmCpm" name="Page-1">
    <mxGraphModel dx="2272" dy="794" grid="1" gridSize="10" guides="1" tooltips="1" connect="1" arrows="1" fold="1" page="1" pageScale="1" pageWidth="850" pageHeight="1100" math="0" shadow="0">
      <root>
        <mxCell id="0"/>
        <mxCell id="1" parent="0"/>
        <mxCell id="bV-LscC6L0329E-6JN9a-8" value="1" style="rounded=0;orthogonalLoop=1;jettySize=auto;html=1;exitX=0.5;exitY=1;exitDx=0;exitDy=0;endArrow=classicThin;endFill=1;orthogonal=1;entryX=0.5;entryY=0;entryDx=0;entryDy=0;labelBorderColor=none;labelBackgroundColor=#ffffff;strokeColor=#B0B0B0;strokeWidth=3;fontColor=#D6D6D6;fontSize=15;shadow=0;" parent="1" source="bV-LscC6L0329E-6JN9a-1" target="bV-LscC6L0329E-6JN9a-5" edge="1">
          <mxGeometry relative="1" as="geometry"/>
        </mxCell>
        <mxCell id="bV-LscC6L0329E-6JN9a-9" value="1" style="rounded=0;orthogonalLoop=1;jettySize=auto;html=1;entryX=0.5;entryY=0;entryDx=0;entryDy=0;exitX=0.5;exitY=1;exitDx=0;exitDy=0;endArrow=classicThin;endFill=1;orthogonal=1;labelBorderColor=none;labelBackgroundColor=#ffffff;strokeColor=#B0B0B0;strokeWidth=3;fontColor=#D6D6D6;fontSize=15;shadow=0;" parent="1" source="bV-LscC6L0329E-6JN9a-1" target="bV-LscC6L0329E-6JN9a-6" edge="1">
          <mxGeometry relative="1" as="geometry"/>
        </mxCell>
        <mxCell id="bV-LscC6L0329E-6JN9a-39" style="edgeStyle=orthogonalEdgeStyle;rounded=0;orthogonalLoop=1;jettySize=auto;html=1;endArrow=classicThin;endFill=1;dashed=1;labelBorderColor=none;labelBackgroundColor=#ffffff;strokeColor=#B0B0B0;strokeWidth=3;fontColor=#D6D6D6;fontSize=15;shadow=0;" parent="1" source="bV-LscC6L0329E-6JN9a-1" target="bV-LscC6L0329E-6JN9a-38" edge="1">
          <mxGeometry relative="1" as="geometry"/>
        </mxCell>
        <mxCell id="bV-LscC6L0329E-6JN9a-42" style="edgeStyle=orthogonalEdgeStyle;rounded=0;orthogonalLoop=1;jettySize=auto;html=1;entryX=0.5;entryY=0;entryDx=0;entryDy=0;dashed=1;endArrow=classicThin;endFill=1;labelBorderColor=none;labelBackgroundColor=#ffffff;strokeColor=#B0B0B0;strokeWidth=3;fontColor=#D6D6D6;fontSize=15;shadow=0;" parent="1" source="bV-LscC6L0329E-6JN9a-1" target="bV-LscC6L0329E-6JN9a-40" edge="1">
          <mxGeometry relative="1" as="geometry"/>
        </mxCell>
        <mxCell id="bV-LscC6L0329E-6JN9a-43" style="edgeStyle=orthogonalEdgeStyle;rounded=0;orthogonalLoop=1;jettySize=auto;html=1;entryX=0.6;entryY=0.017;entryDx=0;entryDy=0;entryPerimeter=0;dashed=1;endArrow=classicThin;endFill=1;labelBorderColor=none;labelBackgroundColor=#ffffff;strokeColor=#B0B0B0;strokeWidth=3;fontColor=#D6D6D6;fontSize=15;shadow=0;" parent="1" source="bV-LscC6L0329E-6JN9a-1" target="bV-LscC6L0329E-6JN9a-41" edge="1">
          <mxGeometry relative="1" as="geometry"/>
        </mxCell>
        <mxCell id="bV-LscC6L0329E-6JN9a-1" value="FlowchartCtrl" style="rounded=1;whiteSpace=wrap;html=1;fillColor=#FFFFFF;strokeColor=#000000;labelBorderColor=none;shadow=1;gradientColor=none;" parent="1" vertex="1">
          <mxGeometry x="607.5792174826798" y="160" width="120" height="60" as="geometry"/>
        </mxCell>
        <mxCell id="bV-LscC6L0329E-6JN9a-13" value="1" style="rounded=0;orthogonalLoop=1;jettySize=auto;html=1;entryX=0.5;entryY=0;entryDx=0;entryDy=0;endArrow=classicThin;endFill=1;orthogonal=1;labelBorderColor=none;labelBackgroundColor=#ffffff;strokeColor=#B0B0B0;strokeWidth=3;fontColor=#D6D6D6;fontSize=15;shadow=0;" parent="1" source="bV-LscC6L0329E-6JN9a-2" target="bV-LscC6L0329E-6JN9a-1" edge="1">
          <mxGeometry relative="1" as="geometry"/>
        </mxCell>
        <mxCell id="bV-LscC6L0329E-6JN9a-2" value="module" style="rounded=1;whiteSpace=wrap;html=1;fillColor=#FFFFFF;strokeColor=#000000;labelBorderColor=none;shadow=1;gradientColor=none;" parent="1" vertex="1">
          <mxGeometry x="607.5792174826798" width="120" height="60" as="geometry"/>
        </mxCell>
        <mxCell id="bV-LscC6L0329E-6JN9a-10" value="0-n" style="rounded=0;orthogonalLoop=1;jettySize=auto;html=1;exitX=0.5;exitY=1;exitDx=0;exitDy=0;entryX=0.5;entryY=0;entryDx=0;entryDy=0;endArrow=classicThin;endFill=1;orthogonal=1;labelBorderColor=none;labelBackgroundColor=#ffffff;strokeColor=#B0B0B0;strokeWidth=3;fontColor=#D6D6D6;fontSize=15;shadow=0;" parent="1" source="bV-LscC6L0329E-6JN9a-5" target="bV-LscC6L0329E-6JN9a-7" edge="1">
          <mxGeometry relative="1" as="geometry"/>
        </mxCell>
        <mxCell id="bV-LscC6L0329E-6JN9a-5" value="RulesHandler" style="rounded=1;whiteSpace=wrap;html=1;fillColor=#FFFFFF;strokeColor=#000000;labelBorderColor=none;shadow=1;gradientColor=none;" parent="1" vertex="1">
          <mxGeometry x="496.8293100674996" y="320" width="120" height="60" as="geometry"/>
        </mxCell>
        <mxCell id="bV-LscC6L0329E-6JN9a-15" value="0-n" style="rounded=0;orthogonalLoop=1;jettySize=auto;html=1;entryX=0.5;entryY=0;entryDx=0;entryDy=0;endArrow=classicThin;endFill=1;orthogonal=1;labelBorderColor=none;labelBackgroundColor=#ffffff;strokeColor=#B0B0B0;strokeWidth=3;fontColor=#D6D6D6;fontSize=15;shadow=0;" parent="1" source="bV-LscC6L0329E-6JN9a-6" target="bV-LscC6L0329E-6JN9a-14" edge="1">
          <mxGeometry relative="1" as="geometry"/>
        </mxCell>
        <mxCell id="bV-LscC6L0329E-6JN9a-6" value="FlowchartHandler" style="rounded=1;whiteSpace=wrap;html=1;fillColor=#FFFFFF;strokeColor=#000000;labelBorderColor=none;shadow=1;gradientColor=none;" parent="1" vertex="1">
          <mxGeometry x="719.9922089210668" y="320" width="120" height="60" as="geometry"/>
        </mxCell>
        <mxCell id="bV-LscC6L0329E-6JN9a-20" value="0-n" style="rounded=0;orthogonalLoop=1;jettySize=auto;html=1;exitX=0.5;exitY=1;exitDx=0;exitDy=0;entryX=0.5;entryY=0;entryDx=0;entryDy=0;endArrow=classicThin;endFill=1;orthogonal=1;labelBorderColor=none;labelBackgroundColor=#ffffff;strokeColor=#B0B0B0;strokeWidth=3;fontColor=#D6D6D6;fontSize=15;shadow=0;" parent="1" source="bV-LscC6L0329E-6JN9a-7" target="bV-LscC6L0329E-6JN9a-16" edge="1">
          <mxGeometry relative="1" as="geometry"/>
        </mxCell>
        <mxCell id="bV-LscC6L0329E-6JN9a-21" value="0-n" style="rounded=0;orthogonalLoop=1;jettySize=auto;html=1;entryX=0.5;entryY=0;entryDx=0;entryDy=0;endArrow=classicThin;endFill=1;exitX=0.5;exitY=1;exitDx=0;exitDy=0;orthogonal=1;labelBorderColor=none;labelBackgroundColor=#ffffff;strokeColor=#B0B0B0;strokeWidth=3;fontColor=#D6D6D6;fontSize=15;shadow=0;" parent="1" source="bV-LscC6L0329E-6JN9a-7" target="bV-LscC6L0329E-6JN9a-17" edge="1">
          <mxGeometry relative="1" as="geometry"/>
        </mxCell>
        <mxCell id="bV-LscC6L0329E-6JN9a-22" value="0-n" style="rounded=0;orthogonalLoop=1;jettySize=auto;html=1;entryX=0.5;entryY=0;entryDx=0;entryDy=0;endArrow=classicThin;endFill=1;exitX=0.5;exitY=1;exitDx=0;exitDy=0;orthogonal=1;labelBorderColor=none;labelBackgroundColor=#ffffff;strokeColor=#B0B0B0;strokeWidth=3;fontColor=#D6D6D6;fontSize=15;shadow=0;" parent="1" source="bV-LscC6L0329E-6JN9a-7" target="bV-LscC6L0329E-6JN9a-18" edge="1">
          <mxGeometry relative="1" as="geometry"/>
        </mxCell>
        <mxCell id="bV-LscC6L0329E-6JN9a-24" value="0-n" style="rounded=0;orthogonalLoop=1;jettySize=auto;html=1;entryX=0.558;entryY=0.033;entryDx=0;entryDy=0;entryPerimeter=0;endArrow=classicThin;endFill=1;orthogonal=1;exitX=0.5;exitY=1;exitDx=0;exitDy=0;labelBorderColor=none;labelBackgroundColor=#ffffff;strokeColor=#B0B0B0;strokeWidth=3;fontColor=#D6D6D6;fontSize=15;shadow=0;" parent="1" source="bV-LscC6L0329E-6JN9a-7" target="bV-LscC6L0329E-6JN9a-23" edge="1">
          <mxGeometry relative="1" as="geometry"/>
        </mxCell>
        <mxCell id="bV-LscC6L0329E-6JN9a-25" value="0-n" style="rounded=0;orthogonalLoop=1;jettySize=auto;html=1;entryX=0.5;entryY=0;entryDx=0;entryDy=0;endArrow=classicThin;endFill=1;orthogonal=1;exitX=0.5;exitY=1;exitDx=0;exitDy=0;labelBorderColor=none;labelBackgroundColor=#ffffff;strokeColor=#B0B0B0;strokeWidth=3;fontColor=#D6D6D6;fontSize=15;shadow=0;" parent="1" source="bV-LscC6L0329E-6JN9a-7" target="bV-LscC6L0329E-6JN9a-19" edge="1">
          <mxGeometry relative="1" as="geometry"/>
        </mxCell>
        <mxCell id="bV-LscC6L0329E-6JN9a-7" value="Rule" style="rounded=1;whiteSpace=wrap;html=1;fillColor=#FFFFFF;strokeColor=#000000;labelBorderColor=none;shadow=1;gradientColor=none;" parent="1" vertex="1">
          <mxGeometry x="387.74248667552587" y="480" width="120" height="60" as="geometry"/>
        </mxCell>
        <mxCell id="bV-LscC6L0329E-6JN9a-27" value="1" style="rounded=0;orthogonalLoop=1;jettySize=auto;html=1;entryX=0.5;entryY=0;entryDx=0;entryDy=0;endArrow=classicThin;endFill=1;exitX=0.5;exitY=1;exitDx=0;exitDy=0;orthogonal=1;labelBorderColor=none;labelBackgroundColor=#ffffff;strokeColor=#B0B0B0;strokeWidth=3;fontColor=#D6D6D6;fontSize=15;shadow=0;" parent="1" source="bV-LscC6L0329E-6JN9a-14" target="bV-LscC6L0329E-6JN9a-26" edge="1">
          <mxGeometry relative="1" as="geometry"/>
        </mxCell>
        <mxCell id="bV-LscC6L0329E-6JN9a-31" value="1" style="rounded=0;orthogonalLoop=1;jettySize=auto;html=1;endArrow=classicThin;endFill=1;entryX=0.5;entryY=0;entryDx=0;entryDy=0;exitX=0.5;exitY=1;exitDx=0;exitDy=0;orthogonal=1;labelBorderColor=none;labelBackgroundColor=#ffffff;strokeColor=#B0B0B0;strokeWidth=3;fontColor=#D6D6D6;fontSize=15;shadow=0;" parent="1" source="bV-LscC6L0329E-6JN9a-14" target="bV-LscC6L0329E-6JN9a-30" edge="1">
          <mxGeometry relative="1" as="geometry"/>
        </mxCell>
        <mxCell id="bV-LscC6L0329E-6JN9a-14" value="Flowchart" style="rounded=1;whiteSpace=wrap;html=1;fillColor=#FFFFFF;strokeColor=#000000;labelBorderColor=none;shadow=1;gradientColor=none;" parent="1" vertex="1">
          <mxGeometry x="894.0682843826604" y="480" width="120" height="60" as="geometry"/>
        </mxCell>
        <mxCell id="bV-LscC6L0329E-6JN9a-16" value="ShapeMap" style="rounded=1;whiteSpace=wrap;html=1;fillColor=#FFFFFF;strokeColor=#000000;labelBorderColor=none;shadow=1;gradientColor=none;" parent="1" vertex="1">
          <mxGeometry x="67" y="640" width="120" height="60" as="geometry"/>
        </mxCell>
        <mxCell id="bV-LscC6L0329E-6JN9a-17" value="TextMap" style="rounded=1;whiteSpace=wrap;html=1;fillColor=#FFFFFF;strokeColor=#000000;labelBorderColor=none;shadow=1;gradientColor=none;" parent="1" vertex="1">
          <mxGeometry x="217" y="640" width="120" height="60" as="geometry"/>
        </mxCell>
        <mxCell id="bV-LscC6L0329E-6JN9a-18" value="LinkMap" style="rounded=1;whiteSpace=wrap;html=1;fillColor=#FFFFFF;strokeColor=#000000;labelBorderColor=none;shadow=1;gradientColor=none;" parent="1" vertex="1">
          <mxGeometry x="367" y="640" width="120" height="60" as="geometry"/>
        </mxCell>
        <mxCell id="bV-LscC6L0329E-6JN9a-19" value="RangeMap" style="rounded=1;whiteSpace=wrap;html=1;fillColor=#FFFFFF;strokeColor=#000000;labelBorderColor=none;shadow=1;gradientColor=none;" parent="1" vertex="1">
          <mxGeometry x="667" y="640" width="120" height="60" as="geometry"/>
        </mxCell>
        <mxCell id="bV-LscC6L0329E-6JN9a-23" value="ValueMap" style="rounded=1;whiteSpace=wrap;html=1;fillColor=#FFFFFF;strokeColor=#000000;labelBorderColor=none;shadow=1;gradientColor=none;" parent="1" vertex="1">
          <mxGeometry x="517" y="640" width="120" height="60" as="geometry"/>
        </mxCell>
        <mxCell id="bV-LscC6L0329E-6JN9a-29" value="1" style="rounded=0;orthogonalLoop=1;jettySize=auto;html=1;endArrow=classicThin;endFill=1;orthogonal=1;labelBorderColor=none;labelBackgroundColor=#ffffff;strokeColor=#B0B0B0;strokeWidth=3;fontColor=#D6D6D6;fontSize=15;shadow=0;" parent="1" source="bV-LscC6L0329E-6JN9a-26" target="bV-LscC6L0329E-6JN9a-28" edge="1">
          <mxGeometry relative="1" as="geometry"/>
        </mxCell>
        <mxCell id="bV-LscC6L0329E-6JN9a-26" value="Xgraph" style="rounded=1;whiteSpace=wrap;html=1;fillColor=#FFFFFF;strokeColor=#000000;labelBorderColor=none;shadow=1;gradientColor=none;" parent="1" vertex="1">
          <mxGeometry x="817" y="640" width="120" height="60" as="geometry"/>
        </mxCell>
        <mxCell id="bV-LscC6L0329E-6JN9a-35" value="0-n" style="edgeStyle=none;rounded=0;orthogonalLoop=1;jettySize=auto;html=1;entryX=0.5;entryY=0;entryDx=0;entryDy=0;endArrow=classicThin;endFill=1;labelBorderColor=none;labelBackgroundColor=#ffffff;strokeColor=#B0B0B0;strokeWidth=3;fontColor=#D6D6D6;fontSize=15;shadow=0;" parent="1" source="bV-LscC6L0329E-6JN9a-28" target="bV-LscC6L0329E-6JN9a-34" edge="1">
          <mxGeometry relative="1" as="geometry"/>
        </mxCell>
        <mxCell id="bV-LscC6L0329E-6JN9a-28" value="mxGraph" style="rounded=1;whiteSpace=wrap;html=1;fillColor=#FFFFFF;strokeColor=#000000;labelBorderColor=none;shadow=1;gradientColor=none;" parent="1" vertex="1">
          <mxGeometry x="817" y="800" width="120" height="60" as="geometry"/>
        </mxCell>
        <mxCell id="bV-LscC6L0329E-6JN9a-33" value="0-n" style="rounded=0;orthogonalLoop=1;jettySize=auto;html=1;entryX=0.5;entryY=0;entryDx=0;entryDy=0;endArrow=classicThin;endFill=1;orthogonal=1;labelBorderColor=none;labelBackgroundColor=#ffffff;strokeColor=#B0B0B0;strokeWidth=3;fontColor=#D6D6D6;fontSize=15;shadow=0;" parent="1" source="bV-LscC6L0329E-6JN9a-30" target="bV-LscC6L0329E-6JN9a-32" edge="1">
          <mxGeometry relative="1" as="geometry"/>
        </mxCell>
        <mxCell id="bV-LscC6L0329E-6JN9a-30" value="StateHandler" style="rounded=1;whiteSpace=wrap;html=1;fillColor=#FFFFFF;strokeColor=#000000;labelBorderColor=none;shadow=1;gradientColor=none;" parent="1" vertex="1">
          <mxGeometry x="967" y="640" width="120" height="60" as="geometry"/>
        </mxCell>
        <mxCell id="_LfRGwQ-ybBCiPOzob_8-3" style="edgeStyle=orthogonalEdgeStyle;rounded=0;orthogonalLoop=1;jettySize=auto;html=1;entryX=1;entryY=0.5;entryDx=0;entryDy=0;exitX=0.5;exitY=1;exitDx=0;exitDy=0;dashed=1;strokeColor=#B0B0B0;shadow=0;" parent="1" source="bV-LscC6L0329E-6JN9a-32" target="bV-LscC6L0329E-6JN9a-34" edge="1">
          <mxGeometry relative="1" as="geometry"/>
        </mxCell>
        <mxCell id="_LfRGwQ-ybBCiPOzob_8-4" value="1,1" style="text;html=1;resizable=0;points=[];align=center;verticalAlign=middle;labelBackgroundColor=#ffffff;fontColor=#B0B0B0;fontSize=15;" parent="_LfRGwQ-ybBCiPOzob_8-3" vertex="1" connectable="0">
          <mxGeometry x="-0.1677" y="4" relative="1" as="geometry">
            <mxPoint as="offset"/>
          </mxGeometry>
        </mxCell>
        <mxCell id="bV-LscC6L0329E-6JN9a-32" value="State" style="rounded=1;whiteSpace=wrap;html=1;fillColor=#FFFFFF;strokeColor=#000000;labelBorderColor=none;shadow=1;gradientColor=none;" parent="1" vertex="1">
          <mxGeometry x="967" y="800" width="120" height="60" as="geometry"/>
        </mxCell>
        <mxCell id="bV-LscC6L0329E-6JN9a-34" value="mxCell" style="rounded=1;whiteSpace=wrap;html=1;fillColor=#FFFFFF;strokeColor=#000000;labelBorderColor=none;shadow=1;gradientColor=none;" parent="1" vertex="1">
          <mxGeometry x="817" y="930" width="120" height="60" as="geometry"/>
        </mxCell>
        <mxCell id="bV-LscC6L0329E-6JN9a-47" style="edgeStyle=orthogonalEdgeStyle;rounded=0;orthogonalLoop=1;jettySize=auto;html=1;endArrow=classicThin;endFill=1;labelBorderColor=none;labelBackgroundColor=#ffffff;strokeColor=#B0B0B0;strokeWidth=3;fontColor=#D6D6D6;fontSize=15;shadow=0;" parent="1" source="bV-LscC6L0329E-6JN9a-38" target="bV-LscC6L0329E-6JN9a-44" edge="1">
          <mxGeometry relative="1" as="geometry"/>
        </mxCell>
        <mxCell id="bV-LscC6L0329E-6JN9a-38" value="flowchartOptionsTab" style="rounded=1;whiteSpace=wrap;html=1;fillColor=#FFFFFF;strokeColor=#000000;labelBorderColor=none;shadow=1;gradientColor=none;" parent="1" vertex="1">
          <mxGeometry x="1160" y="320" width="120" height="60" as="geometry"/>
        </mxCell>
        <mxCell id="bV-LscC6L0329E-6JN9a-48" style="edgeStyle=orthogonalEdgeStyle;rounded=0;orthogonalLoop=1;jettySize=auto;html=1;entryX=0.5;entryY=0;entryDx=0;entryDy=0;endArrow=classicThin;endFill=1;labelBorderColor=none;labelBackgroundColor=#ffffff;strokeColor=#B0B0B0;strokeWidth=3;fontColor=#D6D6D6;fontSize=15;shadow=0;" parent="1" source="bV-LscC6L0329E-6JN9a-40" target="bV-LscC6L0329E-6JN9a-45" edge="1">
          <mxGeometry relative="1" as="geometry"/>
        </mxCell>
        <mxCell id="bV-LscC6L0329E-6JN9a-40" value="mappingOptionsTab" style="rounded=1;whiteSpace=wrap;html=1;fillColor=#FFFFFF;strokeColor=#000000;labelBorderColor=none;shadow=1;gradientColor=none;" parent="1" vertex="1">
          <mxGeometry x="1320" y="320" width="120" height="60" as="geometry"/>
        </mxCell>
        <mxCell id="bV-LscC6L0329E-6JN9a-49" style="edgeStyle=orthogonalEdgeStyle;rounded=0;orthogonalLoop=1;jettySize=auto;html=1;entryX=0.5;entryY=0;entryDx=0;entryDy=0;endArrow=classicThin;endFill=1;labelBorderColor=none;labelBackgroundColor=#ffffff;strokeColor=#B0B0B0;strokeWidth=3;fontColor=#D6D6D6;fontSize=15;shadow=0;" parent="1" source="bV-LscC6L0329E-6JN9a-41" target="bV-LscC6L0329E-6JN9a-46" edge="1">
          <mxGeometry relative="1" as="geometry"/>
        </mxCell>
        <mxCell id="bV-LscC6L0329E-6JN9a-41" value="inspectOptionsTab" style="rounded=1;whiteSpace=wrap;html=1;fillColor=#FFFFFF;strokeColor=#000000;labelBorderColor=none;shadow=1;gradientColor=none;glass=0;" parent="1" vertex="1">
          <mxGeometry x="1480" y="320" width="120" height="60" as="geometry"/>
        </mxCell>
        <mxCell id="bV-LscC6L0329E-6JN9a-44" value="flowchart_options.html" style="shape=document;whiteSpace=wrap;html=1;boundedLbl=1;fillColor=#FFFFFF;strokeColor=#000000;labelBorderColor=none;shadow=1;gradientColor=none;" parent="1" vertex="1">
          <mxGeometry x="1160" y="440" width="120" height="80" as="geometry"/>
        </mxCell>
        <mxCell id="bV-LscC6L0329E-6JN9a-45" value="mapping_options.html" style="shape=document;whiteSpace=wrap;html=1;boundedLbl=1;fillColor=#FFFFFF;strokeColor=#000000;labelBorderColor=none;shadow=1;gradientColor=none;" parent="1" vertex="1">
          <mxGeometry x="1320" y="440" width="120" height="80" as="geometry"/>
        </mxCell>
        <mxCell id="bV-LscC6L0329E-6JN9a-46" value="inspect_options.html" style="shape=document;whiteSpace=wrap;html=1;boundedLbl=1;fillColor=#FFFFFF;strokeColor=#000000;labelBorderColor=none;shadow=1;gradientColor=none;" parent="1" vertex="1">
          <mxGeometry x="1480" y="440" width="120" height="80" as="geometry"/>
        </mxCell>
        <mxCell id="l0Rkj0HlI-U1IX-2Wov2-1" value="MetricHandler" style="rounded=1;whiteSpace=wrap;html=1;fillColor=#FFFFFF;strokeColor=#000000;labelBorderColor=none;shadow=1;gradientColor=none;" vertex="1" parent="1">
          <mxGeometry x="-200.1706899325004" y="320" width="120" height="60" as="geometry"/>
        </mxCell>
        <mxCell id="l0Rkj0HlI-U1IX-2Wov2-4" value="1" style="rounded=0;orthogonalLoop=1;jettySize=auto;html=1;exitX=0.5;exitY=1;exitDx=0;exitDy=0;endArrow=classicThin;endFill=1;orthogonal=1;entryX=0.5;entryY=0;entryDx=0;entryDy=0;labelBorderColor=none;labelBackgroundColor=#ffffff;strokeColor=#B0B0B0;strokeWidth=3;fontColor=#D6D6D6;fontSize=15;shadow=0;" edge="1" parent="1" source="bV-LscC6L0329E-6JN9a-1" target="l0Rkj0HlI-U1IX-2Wov2-1">
          <mxGeometry relative="1" as="geometry">
            <mxPoint x="678" y="230" as="sourcePoint"/>
            <mxPoint x="567" y="330" as="targetPoint"/>
          </mxGeometry>
        </mxCell>
        <mxCell id="l0Rkj0HlI-U1IX-2Wov2-5" value="Serie extend Metric" style="rounded=1;whiteSpace=wrap;html=1;fillColor=#FFFFFF;strokeColor=#000000;labelBorderColor=none;shadow=1;gradientColor=none;" vertex="1" parent="1">
          <mxGeometry x="-300.1706899325004" y="640" width="120" height="60" as="geometry"/>
        </mxCell>
        <mxCell id="l0Rkj0HlI-U1IX-2Wov2-6" value="Table extend Metric" style="rounded=1;whiteSpace=wrap;html=1;fillColor=#FFFFFF;strokeColor=#000000;labelBorderColor=none;shadow=1;gradientColor=none;" vertex="1" parent="1">
          <mxGeometry x="-100.17068993250041" y="640" width="120" height="60" as="geometry"/>
        </mxCell>
        <mxCell id="l0Rkj0HlI-U1IX-2Wov2-7" value="0-n" style="rounded=0;orthogonalLoop=1;jettySize=auto;html=1;exitX=0.5;exitY=1;exitDx=0;exitDy=0;endArrow=classicThin;endFill=1;orthogonal=1;entryX=0.5;entryY=0;entryDx=0;entryDy=0;labelBorderColor=none;labelBackgroundColor=#ffffff;strokeColor=#B0B0B0;strokeWidth=3;fontColor=#D6D6D6;fontSize=15;shadow=0;" edge="1" parent="1" source="l0Rkj0HlI-U1IX-2Wov2-1" target="l0Rkj0HlI-U1IX-2Wov2-5">
          <mxGeometry relative="1" as="geometry">
            <mxPoint x="478" y="420" as="sourcePoint"/>
            <mxPoint x="-330" y="520" as="targetPoint"/>
          </mxGeometry>
        </mxCell>
        <mxCell id="l0Rkj0HlI-U1IX-2Wov2-8" value="0-n" style="rounded=0;orthogonalLoop=1;jettySize=auto;html=1;exitX=0.5;exitY=1;exitDx=0;exitDy=0;endArrow=classicThin;endFill=1;orthogonal=1;entryX=0.5;entryY=0;entryDx=0;entryDy=0;labelBorderColor=none;labelBackgroundColor=#ffffff;strokeColor=#B0B0B0;strokeWidth=3;fontColor=#D6D6D6;fontSize=15;shadow=0;" edge="1" parent="1" source="l0Rkj0HlI-U1IX-2Wov2-1" target="l0Rkj0HlI-U1IX-2Wov2-6">
          <mxGeometry relative="1" as="geometry">
            <mxPoint x="-130" y="390" as="sourcePoint"/>
            <mxPoint x="-250" y="650" as="targetPoint"/>
          </mxGeometry>
        </mxCell>
        <mxCell id="l0Rkj0HlI-U1IX-2Wov2-9" value="TooltipHandler" style="rounded=1;whiteSpace=wrap;html=1;fillColor=#FFFFFF;strokeColor=#000000;labelBorderColor=none;shadow=1;gradientColor=none;" vertex="1" parent="1">
          <mxGeometry x="1100" y="930" width="120" height="60" as="geometry"/>
        </mxCell>
        <mxCell id="l0Rkj0HlI-U1IX-2Wov2-10" value="0-1" style="rounded=0;orthogonalLoop=1;jettySize=auto;html=1;entryX=0.5;entryY=0;entryDx=0;entryDy=0;endArrow=classicThin;endFill=1;orthogonal=1;labelBorderColor=none;labelBackgroundColor=#ffffff;strokeColor=#B0B0B0;strokeWidth=3;fontColor=#D6D6D6;fontSize=15;shadow=0;exitX=0.5;exitY=1;exitDx=0;exitDy=0;" edge="1" parent="1" source="bV-LscC6L0329E-6JN9a-32" target="l0Rkj0HlI-U1IX-2Wov2-9">
          <mxGeometry relative="1" as="geometry">
            <mxPoint x="1037" y="710" as="sourcePoint"/>
            <mxPoint x="1037" y="810" as="targetPoint"/>
          </mxGeometry>
        </mxCell>
        <mxCell id="l0Rkj0HlI-U1IX-2Wov2-11" value="MetricTooltip" style="rounded=1;whiteSpace=wrap;html=1;fillColor=#FFFFFF;strokeColor=#000000;labelBorderColor=none;shadow=1;gradientColor=none;" vertex="1" parent="1">
          <mxGeometry x="1100" y="1060" width="120" height="60" as="geometry"/>
        </mxCell>
        <mxCell id="l0Rkj0HlI-U1IX-2Wov2-12" value="1-n" style="rounded=0;orthogonalLoop=1;jettySize=auto;html=1;entryX=0.5;entryY=0;entryDx=0;entryDy=0;endArrow=classicThin;endFill=1;orthogonal=1;labelBorderColor=none;labelBackgroundColor=#ffffff;strokeColor=#B0B0B0;strokeWidth=3;fontColor=#D6D6D6;fontSize=15;shadow=0;exitX=0.5;exitY=1;exitDx=0;exitDy=0;" edge="1" parent="1" source="l0Rkj0HlI-U1IX-2Wov2-9" target="l0Rkj0HlI-U1IX-2Wov2-11">
          <mxGeometry relative="1" as="geometry">
            <mxPoint x="1037" y="870" as="sourcePoint"/>
            <mxPoint x="1170" y="940" as="targetPoint"/>
          </mxGeometry>
        </mxCell>
        <mxCell id="l0Rkj0HlI-U1IX-2Wov2-13" value="GraphTooltip" style="rounded=1;whiteSpace=wrap;html=1;fillColor=#FFFFFF;strokeColor=#000000;labelBorderColor=none;shadow=1;gradientColor=none;" vertex="1" parent="1">
          <mxGeometry x="1100" y="1190" width="120" height="60" as="geometry"/>
        </mxCell>
        <mxCell id="l0Rkj0HlI-U1IX-2Wov2-14" value="0-1" style="rounded=0;orthogonalLoop=1;jettySize=auto;html=1;entryX=0.5;entryY=0;entryDx=0;entryDy=0;endArrow=classicThin;endFill=1;orthogonal=1;labelBorderColor=none;labelBackgroundColor=#ffffff;strokeColor=#B0B0B0;strokeWidth=3;fontColor=#D6D6D6;fontSize=15;shadow=0;exitX=0.5;exitY=1;exitDx=0;exitDy=0;" edge="1" parent="1" source="l0Rkj0HlI-U1IX-2Wov2-11" target="l0Rkj0HlI-U1IX-2Wov2-13">
          <mxGeometry relative="1" as="geometry">
            <mxPoint x="1170" y="1000" as="sourcePoint"/>
            <mxPoint x="1170" y="1070" as="targetPoint"/>
          </mxGeometry>
        </mxCell>
        <mxCell id="l0Rkj0HlI-U1IX-2Wov2-15" value="LineGraphTooltip&lt;br&gt;extends" style="rounded=1;whiteSpace=wrap;html=1;fillColor=#FFFFFF;strokeColor=#000000;labelBorderColor=none;shadow=1;gradientColor=none;" vertex="1" parent="1">
          <mxGeometry x="1014" y="1350" width="120" height="60" as="geometry"/>
        </mxCell>
        <mxCell id="l0Rkj0HlI-U1IX-2Wov2-16" value="BarGraphTooltip&lt;br&gt;extends" style="rounded=1;whiteSpace=wrap;html=1;fillColor=#FFFFFF;strokeColor=#000000;labelBorderColor=none;shadow=1;gradientColor=none;" vertex="1" parent="1">
          <mxGeometry x="1180" y="1350" width="120" height="60" as="geometry"/>
        </mxCell>
        <mxCell id="l0Rkj0HlI-U1IX-2Wov2-17" value="1" style="rounded=0;orthogonalLoop=1;jettySize=auto;html=1;entryX=0.5;entryY=0;entryDx=0;entryDy=0;endArrow=classicThin;endFill=1;orthogonal=1;labelBorderColor=none;labelBackgroundColor=#ffffff;strokeColor=#B0B0B0;strokeWidth=3;fontColor=#D6D6D6;fontSize=15;shadow=0;" edge="1" parent="1" target="l0Rkj0HlI-U1IX-2Wov2-15">
          <mxGeometry relative="1" as="geometry">
            <mxPoint x="1160" y="1250" as="sourcePoint"/>
            <mxPoint x="1080" y="1340" as="targetPoint"/>
          </mxGeometry>
        </mxCell>
        <mxCell id="l0Rkj0HlI-U1IX-2Wov2-18" value="1" style="rounded=0;orthogonalLoop=1;jettySize=auto;html=1;entryX=0.5;entryY=0;entryDx=0;entryDy=0;endArrow=classicThin;endFill=1;orthogonal=1;labelBorderColor=none;labelBackgroundColor=#ffffff;strokeColor=#B0B0B0;strokeWidth=3;fontColor=#D6D6D6;fontSize=15;shadow=0;exitX=0.5;exitY=1;exitDx=0;exitDy=0;" edge="1" parent="1" source="l0Rkj0HlI-U1IX-2Wov2-13" target="l0Rkj0HlI-U1IX-2Wov2-16">
          <mxGeometry relative="1" as="geometry">
            <mxPoint x="1110" y="1260" as="sourcePoint"/>
            <mxPoint x="1110" y="1330" as="targetPoint"/>
          </mxGeometry>
        </mxCell>
      </root>
    </mxGraphModel>
  </diagram>
</mxfile>
